<?xml version="1.0" encoding="utf-8"?>
<!-- Generator: Adobe Illustrator 12.0.0, SVG Export Plug-In . SVG Version: 6.00 Build 51448)  -->
<!DOCTYPE svg PUBLIC "-//W3C//DTD SVG 1.1//EN" "http://www.w3.org/Graphics/SVG/1.1/DTD/svg11.dtd" [
	<!ENTITY ns_svg "http://www.w3.org/2000/svg">
	<!ENTITY ns_xlink "http://www.w3.org/1999/xlink">
]>
<svg  version="1.1" id="Ebene_1" xmlns="&ns_svg;" xmlns:xlink="&ns_xlink;" width="116.385" height="116.385"
	 viewBox="0 0 116.385 116.385" overflow="visible" enable-background="new 0 0 116.385 116.385" xml:space="preserve">
<path fill-rule="evenodd" clip-rule="evenodd" fill="#C6C7C8" d="M93.572,19.514c-0.865,1.781-4.194,1.097-4.203,3.735
	c-0.048,0.903,1.153,0.558,1.637,0.935c0.12,0.733,0.407,1.302,0.697,1.868c0.814-0.197,1.244-0.781,2.335-0.701
	c-0.138,0.994,0.169,1.544,0.234,2.335c-3.559-0.901-5.617,0.642-6.538,3.034c-1.112-0.18-1.501,0.365-2.568,0.233
	c-0.69,0.322-0.332,1.691-0.698,2.336c0.073,0.546,1.018,0.227,1.165,0.699c0.005,0.551-0.4,0.688-0.233,1.402
	c-1.835-0.724-3.293-0.581-5.371-0.234c-0.949,1.295-0.458,2.842-0.233,4.669c1.058,0.847,3.995,0.939,5.604,0.466
	c1.025-1.62,2.204-3.089,3.269-4.669c1.878,0.559,2.583-0.232,3.503-1.167c0.744,2.215,3.513,2.402,4.671,4.203
	c-0.498,0.698-1.477,0.398-2.337,0.233c0.257,1.424,2.084,1.701,3.269,0.935c0.019-0.839-0.188-1.901,0.47-2.102
	c-1.186-1.463-3.635-1.658-3.971-3.969c2.67-1.189,3.602,1.376,5.138,2.101c-0.344,2.6,1.131,3.381,2.332,4.435
	c0.333-1.537,0.592-3.146,1.87-3.734c0.549,2.407,1.149,4.764,4.902,3.967c0.396,1.552,1.01,2.886,1.402,4.437
	c-2.988,0.864-6.086-0.123-7.238-1.867c-0.655,0.28-1.611,0.257-2.567,0.233c-0.529,0.174-0.094,1.31-0.235,1.868
	c-2.25-0.627-4.249-1.509-6.77-1.868c0-1.09,0-2.179,0-3.268c-2.861,0.41-6.447,0.092-8.176,1.634
	c-3.17-0.5-4.604,0.257-6.536,1.401c0,1.09,0,2.179,0,3.269c-2.095,1.328-3.941,2.906-6.069,4.203
	c0.259,0.987,0.434,2.054,1.633,2.102c0.238,1.249-0.319,1.702-0.933,2.1c-1.547,5.656,3.091,7.557,5.369,10.507
	c2.178-0.002,3.571-0.788,6.073-0.465c1.254-0.837,1.998-1.202,3.5-0.936c0.711,0.126,0.848,0.846,1.635,1.167
	c1.175,0.481,2.139-0.089,3.269,0.469c-1.532,5.294,1.796,7.634,3.268,11.205c-1.111,2.18-3.138,5.774-0.231,7.475
	c-0.47,3.503,0.541,5.527,2.1,7.001c0,1.172,0,2.338,0,3.503c0.176,0.526,1.31,0.092,1.869,0.233c0,0,36.066-47.363-6.407-75.678
	 M6.715,39.361c0.534,0.399,0.086,1.782,0.233,2.567c0.537,0.553,1.432,0.749,2.102,1.168c-0.583,4.083,0.973,6.03,2.333,8.172
	c0.759-0.135,1.087,0.159,1.634,0.233c1.138-2.579-3.075-4.358-1.867-7.704c1.724,0.005,1.079,2.128,1.401,3.034
	c0.636,1.794,2.209,3.069,3.035,4.437c-0.061,0.717-0.507,1.05-0.7,1.634c0.516,1.118,1.351,1.918,1.868,3.036
	c2.37,0.495,4.062,1.201,6.538,0.466c0.413,0.391-0.207,0.783,0,1.636c4.272-0.226,5.193,2.901,7.472,4.668
	c1.472-0.072,2.765,0.037,3.969,0.234c-0.139,1.228,0.174,2.005,0.235,3.034c-0.654,0.979-1.693,1.578-2.803,2.102
	c0.319,2.207-0.731,3.417-0.466,4.902c0.483,2.724,4.331,3.563,4.203,7.006c2.09,0.635,3.704,1.744,5.136,3.035
	c0,3.035,0,6.069,0,9.105c-0.112,0.735,1.07,0.175,1.168,0.699c-0.829,2.849-0.78,5.3,1.167,6.772
	c-1.171,6.147,2.457,9.109,5.604,11.675c1.09,0,2.18,0,3.269,0c0.767-1.899-1.625-1.917-2.102-3.269
	c-0.083-1.251,0.694-1.642,0.467-3.035c-0.576-0.434-1.662-0.363-2.102-0.936c-0.6-0.954,1.396-1.006,1.168-2.332
	c0.222-1.08-1.519-0.196-1.401-1.169c0.078-1.076,1.261-0.515,1.868-0.699c1.292-0.398,2.453-1.192,3.502-1.637
	c1.267-2.469,3.119-4.354,4.671-6.538c-0.571-1.697-1.117-3.93,0.232-5.137c2.72,0.386,4.241-0.431,5.369-1.633
	c0.404-2.394-0.03-4.308,0.467-6.072c0.565-1.996,3.047-2.963,2.803-5.371c-1.585-0.514-2.948-1.253-3.27-3.033
	c-3.818,0.398-6.303-0.547-8.872-1.401c0.24-2.418-0.645-3.713-1.401-5.137c-1.167,0-2.335,0-3.502,0
	c-1.051-1.518-1.651-3.486-3.735-3.968c-0.634-0.169,0.167,1.101-0.467,0.933c-0.786,0.147-2.169-0.3-2.568,0.233
	c-0.985-1.35-2.394-2.275-4.669-2.334c-1.357,0.668-1.919,2.128-3.036,3.035c-1.661-0.051-2.922-0.503-4.435-0.701
	c0.162-1.796-0.235-3.034-0.235-4.67c-0.674-0.569-1.972-0.517-3.035-0.7c0.295-1.456,1.499-2.033,0.934-3.736
	c-2.512,0.569-3.492,3.493-7.005,2.334c-1.221-1.52-0.916-2.633,0-4.669c0.8-1.779,1.85-3.27,4.204-3.735
	c1.904-0.378,4.395,0.279,6.536,0c-0.472,2.184,1.098,2.328,2.336,2.802c-1.193-4.185,2.786-5.558,5.136-7.238
	c0-0.466,0-0.936,0-1.401c1.867-2.181,3.893-4.201,6.771-5.371c0.013-1.063,1.736-1.637,2.335-2.801
	c1.064,0.597,1.699,0.874,2.335-0.234c-0.361-0.496-1.614-0.1-1.868-0.701c-0.278-2.117,2.613-1.449,2.802-0.233
	c1.88,0.402,2.131-0.825,3.501-0.933c0.535,1.435-1.374,1.257-0.701,2.102c0.517,1.195,2.283,1.141,3.737,1.401
	c0.54-2.175-1.633-1.637-2.335-2.569c-0.032-1.044,1.352-0.67,1.868-1.167c0.468-2.257-0.954-2.625-2.102-3.269
	c0-1.012,0-2.023,0-3.036c-1.632,0.08-1.999,1.426-3.968,1.168c0.009-0.769,0.394-1.163,0.232-2.103
	c-1.598-1.075-4.382-1.551-5.604,0c0,1.246,0,2.491,0,3.737c-0.78,0.387-1.789,0.546-2.568,0.934
	c-1.151,0.561-0.625,2.799-2.568,2.568c0-0.934,0-1.867,0-2.802c-2.108-0.615-4.763-0.687-4.669-3.503
	c2.369-1.211,4.213-2.946,7.238-3.501c-0.023,0.724,0.105,1.295,0.468,1.634c1.409,0.165,1.048-1.441,2.568-1.168
	c0.011-0.712-0.841-0.56-0.701-1.399c2.032,0.397,2.205-1.064,3.269-1.635c2.138-0.223,3.886-0.778,4.903,0.7
	c-0.899,1.2-2.692,1.511-3.969,2.334c1.493,0.687,3.497,0.862,5.136,1.401c0.554-0.38,0.498-1.371,0.936-1.867
	c1.722,0.243,2.786-0.171,3.034-1.402C59.829,18,59.158,17.97,58.549,17.88c0-0.623,0-1.245,0-1.867
	c-2.426-1.913-7.767-3.474-10.739-0.934c-0.179,1.018,0.289,2.162,0,2.568c-3.072,0.071-1.949-2.66-0.468-3.503
	c-1.378-0.361-4.762-0.717-4.903,0.935c-0.116,0.972,1.775-0.063,1.167,1.4c-0.552,1.004-2.898,0.215-3.034,1.635
	c-1.012,0-2.024,0-3.037,0c0.053-0.752-0.413-0.988-0.232-1.869c2.593,0.492,3.301-0.9,4.436-1.868
	c-0.626-1.77-1.682,0.533-2.802,0.702c-1.632,0.244-2.701-0.423-3.269-2.102c-3.347-0.468-4.955,0.806-6.304,2.334
	c0.926,0.086,2.237-0.213,2.801,0.234c0.435,0.82-0.177,0.768-0.466,1.402c1.489,0.068,3.481-0.369,3.502,1.167
	c-1.012,0-2.023,0-3.036,0c-1.554-1.404-3.704-2.211-6.771-2.101C7.91,23.418,6.715,39.361,6.715,39.361z M82.599,25.352
	c-0.011,1.25,2.331,1.12,2.102,2.568c-1.023,0.223-1.554,0.939-1.401,2.335c2.111,0.012,4.469,0.266,4.669-1.635
	c-2.191-0.531-2.45-2.997-3.268-4.904C83.227,24.116,82.607,24.331,82.599,25.352z M79.562,29.554
	c2.05-0.053,3.407-0.796,3.737-2.568C81.807,25.26,79.247,27.278,79.562,29.554z M50.844,33.757c0.377,2.502,2.849,0.25,3.269-0.701
	c-0.441,0.052-0.515-0.263-0.934-0.234C52.669,33.404,52.228,34.052,50.844,33.757z M48.742,35.158c0.389,0,0.779,0,1.168,0
	c0.125-0.826-0.198-1.203-0.701-1.401C49.002,34.172,48.558,34.351,48.742,35.158z"/>
<circle fill="none" stroke="#000000" stroke-width="3" cx="58.192" cy="58.192" r="56.692"/>
<line stroke="#000000" stroke-linecap="square" stroke-miterlimit="10" x1="14.541" y1="91.83" x2="14.541" y2="91.413"/>
<line stroke="#000000" stroke-linecap="square" stroke-miterlimit="10" x1="14.541" y1="91.83" x2="14.541" y2="90.997"/>
<line stroke="#000000" stroke-linecap="square" stroke-miterlimit="10" x1="14.541" y1="91.83" x2="14.541" y2="90.997"/>
<line stroke="#000000" stroke-linecap="square" stroke-miterlimit="10" x1="16.6" y1="91.83" x2="16.6" y2="90.997"/>
<line stroke="#000000" stroke-linecap="square" stroke-miterlimit="10" x1="16.6" y1="91.83" x2="16.6" y2="91.204"/>
<line stroke="#000000" stroke-linecap="square" stroke-miterlimit="10" x1="16.6" y1="91.83" x2="16.6" y2="91.413"/>
<line stroke="#000000" stroke-linecap="square" stroke-miterlimit="10" x1="18.662" y1="91.83" x2="18.662" y2="91.413"/>
<line stroke="#000000" stroke-linecap="square" stroke-miterlimit="10" x1="18.662" y1="91.83" x2="18.662" y2="90.579"/>
<line stroke="#000000" stroke-linecap="square" stroke-miterlimit="10" x1="18.662" y1="91.83" x2="18.662" y2="91.622"/>
<line stroke="#000000" stroke-linecap="square" stroke-miterlimit="10" x1="18.662" y1="91.83" x2="18.662" y2="88.704"/>
<line stroke="#000000" stroke-linecap="square" stroke-miterlimit="10" x1="20.721" y1="91.83" x2="20.721" y2="86.618"/>
<line stroke="#000000" stroke-linecap="square" stroke-miterlimit="10" x1="20.721" y1="91.83" x2="20.721" y2="80.573"/>
<line stroke="#000000" stroke-linecap="square" stroke-miterlimit="10" x1="20.721" y1="91.83" x2="20.721" y2="91.204"/>
<line stroke="#000000" stroke-linecap="square" stroke-miterlimit="10" x1="20.721" y1="91.83" x2="20.721" y2="73.276"/>
<line stroke="#000000" stroke-linecap="square" stroke-miterlimit="10" x1="20.721" y1="91.83" x2="20.721" y2="67.44"/>
<line stroke="#000000" stroke-linecap="square" stroke-miterlimit="10" x1="22.779" y1="91.83" x2="22.779" y2="50.971"/>
<line stroke="#000000" stroke-linecap="square" stroke-miterlimit="10" x1="22.779" y1="91.83" x2="22.779" y2="90.997"/>
<line stroke="#000000" stroke-linecap="square" stroke-miterlimit="10" x1="22.779" y1="91.83" x2="22.779" y2="48.053"/>
<line stroke="#000000" stroke-linecap="square" stroke-miterlimit="10" x1="22.779" y1="91.83" x2="22.779" y2="32.836"/>
<line stroke="#000000" stroke-linecap="square" stroke-miterlimit="10" x1="24.843" y1="91.83" x2="24.843" y2="26.164"/>
<line stroke="#000000" stroke-linecap="square" stroke-miterlimit="10" x1="24.843" y1="91.83" x2="24.843" y2="19.911"/>
<line stroke="#000000" stroke-linecap="square" stroke-miterlimit="10" x1="24.843" y1="91.83" x2="24.843" y2="24.914"/>
<line stroke="#000000" stroke-linecap="square" stroke-miterlimit="10" x1="24.843" y1="91.83" x2="24.843" y2="27.625"/>
<line stroke="#000000" stroke-linecap="square" stroke-miterlimit="10" x1="26.905" y1="91.83" x2="26.905" y2="90.997"/>
<line stroke="#000000" stroke-linecap="square" stroke-miterlimit="10" x1="26.905" y1="91.83" x2="26.905" y2="33.877"/>
<line stroke="#000000" stroke-linecap="square" stroke-miterlimit="10" x1="26.905" y1="91.83" x2="26.905" y2="42.842"/>
<line stroke="#000000" stroke-linecap="square" stroke-miterlimit="10" x1="26.905" y1="91.83" x2="26.905" y2="52.43"/>
<line stroke="#000000" stroke-linecap="square" stroke-miterlimit="10" x1="28.969" y1="91.83" x2="28.969" y2="62.854"/>
<line stroke="#000000" stroke-linecap="square" stroke-miterlimit="10" x1="28.969" y1="91.83" x2="28.969" y2="69.942"/>
<line stroke="#000000" stroke-linecap="square" stroke-miterlimit="10" x1="28.969" y1="91.83" x2="28.969" y2="75.987"/>
<line stroke="#000000" stroke-linecap="square" stroke-miterlimit="10" x1="31.023" y1="91.83" x2="31.023" y2="81.407"/>
<line stroke="#000000" stroke-linecap="square" stroke-miterlimit="10" x1="31.023" y1="91.83" x2="31.023" y2="84.742"/>
<line stroke="#000000" stroke-linecap="square" stroke-miterlimit="10" x1="31.023" y1="91.83" x2="31.023" y2="87.87"/>
<line stroke="#000000" stroke-linecap="square" stroke-miterlimit="10" x1="31.023" y1="91.83" x2="31.023" y2="91.83"/>
<line stroke="#000000" stroke-linecap="square" stroke-miterlimit="10" x1="33.086" y1="91.83" x2="33.086" y2="89.328"/>
<line stroke="#000000" stroke-linecap="square" stroke-miterlimit="10" x1="33.086" y1="91.83" x2="33.086" y2="90.37"/>
<line stroke="#000000" stroke-linecap="square" stroke-miterlimit="10" x1="33.086" y1="91.83" x2="33.086" y2="90.787"/>
<line stroke="#000000" stroke-linecap="square" stroke-miterlimit="10" x1="33.086" y1="91.83" x2="33.086" y2="90.37"/>
<line stroke="#000000" stroke-linecap="square" stroke-miterlimit="10" x1="35.149" y1="91.83" x2="35.149" y2="89.745"/>
<line stroke="#000000" stroke-linecap="square" stroke-miterlimit="10" x1="35.149" y1="91.83" x2="35.149" y2="89.536"/>
<line stroke="#000000" stroke-linecap="square" stroke-miterlimit="10" x1="35.149" y1="91.83" x2="35.149" y2="88.704"/>
<line stroke="#000000" stroke-linecap="square" stroke-miterlimit="10" x1="37.208" y1="91.83" x2="37.208" y2="89.12"/>
<line stroke="#000000" stroke-linecap="square" stroke-miterlimit="10" x1="37.208" y1="91.83" x2="37.208" y2="88.912"/>
<line stroke="#000000" stroke-linecap="square" stroke-miterlimit="10" x1="37.208" y1="91.83" x2="37.208" y2="88.495"/>
<line stroke="#000000" stroke-linecap="square" stroke-miterlimit="10" x1="39.267" y1="91.83" x2="39.267" y2="89.536"/>
<line stroke="#000000" stroke-linecap="square" stroke-miterlimit="10" x1="39.267" y1="91.83" x2="39.267" y2="89.328"/>
<line stroke="#000000" stroke-linecap="square" stroke-miterlimit="10" x1="39.267" y1="91.83" x2="39.267" y2="89.536"/>
<line stroke="#000000" stroke-linecap="square" stroke-miterlimit="10" x1="39.267" y1="91.83" x2="39.267" y2="89.953"/>
<line stroke="#000000" stroke-linecap="square" stroke-miterlimit="10" x1="41.329" y1="91.83" x2="41.329" y2="90.37"/>
<line stroke="#000000" stroke-linecap="square" stroke-miterlimit="10" x1="41.329" y1="91.83" x2="41.329" y2="90.787"/>
<line stroke="#000000" stroke-linecap="square" stroke-miterlimit="10" x1="41.329" y1="91.83" x2="41.329" y2="91.204"/>
<line stroke="#FFFFFF" stroke-linecap="square" stroke-miterlimit="10" x1="43.392" y1="91.83" x2="43.392" y2="91.413"/>
<line stroke="#FFFFFF" stroke-linecap="square" stroke-miterlimit="10" x1="43.392" y1="91.83" x2="43.392" y2="91.413"/>
<line stroke="#000000" stroke-linecap="square" stroke-miterlimit="10" x1="43.392" y1="91.83" x2="43.392" y2="91.622"/>
<line stroke="#111211" stroke-linecap="square" stroke-miterlimit="10" x1="45.451" y1="91.83" x2="45.451" y2="91.83"/>
<text transform="matrix(1 0 0 1 30.4043 28.2129)"><tspan x="0" y="0" font-family="'Myriad-Bold'" font-size="12.4308">Functional</tspan><tspan x="0" y="14.917" font-family="'Myriad-Bold'" font-size="12.4308">Metabolomics</tspan><tspan x="0" y="29.834" font-family="'Myriad-Bold'" font-size="12.4308">Lab</tspan></text>
<path d="M86.877,62.865l-2.27-0.821l-1.846,1.553l0.017,0.085c-0.916-0.072-1.823,0-2.695,0.204L78.37,62.69l-2.184,1.023
	l-0.204,2.369c-0.454,0.43-0.867,0.909-1.228,1.436l-0.025-0.031l-2.376,0.423l-0.821,2.27l1.554,1.846l0.129-0.022
	c-0.048,0.797,0.011,1.586,0.171,2.353l-0.257-0.023l-1.381,1.98l1.024,2.185l2.402,0.205l0.219-0.311
	c0.455,0.523,0.973,0.994,1.55,1.403l-0.064,0.055l0.423,2.376l2.27,0.82l1.846-1.553l-0.016-0.084
	c0.656,0.051,1.309,0.028,1.946-0.063l-0.036,0.425l1.978,1.381l2.186-1.023l0.207-2.404l-0.181-0.126
	c0.66-0.505,1.251-1.104,1.753-1.788l0.084,0.1l2.376-0.424l0.821-2.268l-1.555-1.846l-0.039,0.007
	c0.066-0.706,0.048-1.41-0.051-2.097l1.317-1.89l-1.022-2.187l-2.128-0.182c-0.517-0.652-1.127-1.237-1.823-1.729l0.064-0.056
	L86.877,62.865z M83.435,68.83c2.05,0.743,3.113,3.009,2.369,5.06c-0.742,2.053-3.008,3.113-5.06,2.371
	c-2.052-0.743-3.112-3.008-2.37-5.061C79.117,69.148,81.382,68.086,83.435,68.83z"/>
<path d="M79.526,48.185l-1.641-0.384l-1.154,1.229l0.018,0.058c-0.64,0.025-1.264,0.149-1.852,0.362l-1.287-0.687l-1.434,0.888
	l0.055,1.662c-0.28,0.336-0.527,0.702-0.734,1.097l-0.02-0.02l-1.613,0.489l-0.384,1.643l1.23,1.153l0.088-0.028
	c0.032,0.558,0.138,1.102,0.312,1.619l-0.181,0.006l-0.795,1.486l0.89,1.432l1.686-0.055l0.125-0.231
	c0.358,0.323,0.756,0.608,1.191,0.845l-0.04,0.043l0.487,1.613l1.643,0.385l1.152-1.23l-0.016-0.057
	c0.459-0.02,0.91-0.088,1.344-0.205l0.011,0.299l1.486,0.795l1.433-0.891l-0.055-1.685l-0.135-0.071
	c0.416-0.405,0.777-0.871,1.068-1.387l0.066,0.063l1.614-0.489l0.383-1.642l-1.229-1.153l-0.027,0.008
	c-0.012-0.496-0.083-0.982-0.209-1.45l0.76-1.42l-0.889-1.433l-1.492,0.049c-0.41-0.411-0.883-0.766-1.406-1.051l0.04-0.043
	L79.526,48.185z M77.63,52.606c1.484,0.346,2.406,1.832,2.06,3.316s-1.833,2.408-3.317,2.061s-2.406-1.832-2.06-3.316
	C74.659,53.183,76.145,52.259,77.63,52.606z"/>
<path d="M70.819,79.276l-0.053,0.01c0.089-0.936,0.063-1.865-0.068-2.773l1.745-2.502l-1.354-2.893l-2.816-0.241
	c-0.682-0.864-1.49-1.638-2.411-2.29l0.086-0.071l-0.561-3.144l-3.003-1.088l-2.442,2.057l0.02,0.111
	c-1.209-0.095-2.411,0.002-3.566,0.269l-2.265-1.58l-2.893,1.354l-0.269,3.137c-0.602,0.567-1.147,1.202-1.624,1.898l-0.035-0.041
	l-3.145,0.561l-1.087,3.003l2.057,2.442l0.171-0.029c-0.065,1.054,0.014,2.1,0.226,3.113l-0.34-0.03l-1.827,2.62l1.354,2.891
	l3.182,0.273l0.287-0.41c0.603,0.69,1.289,1.314,2.053,1.857l-0.085,0.07l0.559,3.146l3.004,1.087l2.442-2.057l-0.02-0.111
	c0.868,0.068,1.731,0.037,2.576-0.084l-0.049,0.563l2.62,1.828l2.892-1.355l0.272-3.182l-0.238-0.166
	c0.871-0.669,1.654-1.463,2.319-2.368l0.111,0.132l3.146-0.559l1.086-3.004L70.819,79.276z M64.935,80.313
	c-1.176,3.251-4.764,4.932-8.014,3.754c-3.25-1.176-4.932-4.766-3.756-8.014c1.178-3.251,4.766-4.932,8.017-3.755
	C64.431,73.475,66.112,77.063,64.935,80.313z"/>
</svg>
